<svg xmlns="http://www.w3.org/2000/svg" viewBox="0 0 1584 396">
  <!-- Background -->
  <rect width="1584" height="396" fill="#f5f7ff" />
  
  <!-- Abstract connection lines -->
  <path d="M100,150 C200,100 250,300 350,200" stroke="#1c00ff" stroke-width="3" fill="none" />
  <path d="M150,250 C300,150 400,300 500,200" stroke="#1c00ff" stroke-width="3" fill="none" />
  <path d="M1000,150 C1100,100 1200,200 1300,150" stroke="#1c00ff" stroke-width="3" fill="none" />
  <path d="M1100,200 C1200,150 1300,250 1400,200" stroke="#1c00ff" stroke-width="3" fill="none" />
  
  <!-- Main Text Group - positioned to avoid logo overlap -->
  <text x="400" y="120" font-family="Impact, Charcoal, sans-serif" font-size="60" fill="#1c00ff">License Web Content</text>
  <text x="400" y="190" font-family="Impact, Charcoal, sans-serif" font-size="60" fill="#1c00ff">At Scale</text>
  <text x="400" y="240" font-family="Arial, sans-serif" font-size="24" fill="#333333">Global marketplace connecting AI Developers</text>
  <text x="400" y="275" font-family="Arial, sans-serif" font-size="24" fill="#333333">with Web Publishers &amp; Social Media</text>
  
  <!-- Data nodes -->
  <circle cx="200" cy="150" r="20" fill="#1c00ff" opacity="0.8" />
  <circle cx="1200" cy="180" r="15" fill="#1c00ff" opacity="0.8" />
  <circle cx="1100" cy="250" r="25" fill="#1c00ff" opacity="0.8" />
  
  <!-- Right side elements -->
  <rect x="1150" y="200" width="80" height="40" rx="5" fill="#333333" />
  <text x="1190" y="225" font-family="Impact, Charcoal, sans-serif" font-size="18" fill="white" text-anchor="middle" dominant-baseline="middle">API</text>
  
  <rect x="1250" y="120" width="120" height="60" rx="5" fill="#1c00ff" />
  <text x="1310" y="155" font-family="Impact, Charcoal, sans-serif" font-size="20" fill="white" text-anchor="middle" dominant-baseline="middle">CONTENT</text>
  
  <!-- Call to action button -->
  <rect x="1100" y="300" width="180" height="50" rx="5" fill="#1c00ff" />
  <text x="1190" y="332" font-family="Impact, Charcoal, sans-serif" font-size="20" fill="white" text-anchor="middle" dominant-baseline="middle">START LICENSING →</text>
  
  <!-- Data visualization element -->
  <rect x="150" y="200" width="100" height="50" rx="5" fill="#1c00ff" opacity="0.9" />
  <text x="200" y="230" font-family="Impact, Charcoal, sans-serif" font-size="16" fill="white" text-anchor="middle" dominant-baseline="middle">DATA</text>
</svg>